<mxfile host="app.diagrams.net" agent="Mozilla/5.0 (Windows NT 10.0; Win64; x64) AppleWebKit/537.36 (KHTML, like Gecko) Chrome/136.0.0.0 Safari/537.36" version="27.0.1">
  <diagram name="Page-1" id="iXP-jFYHlflBcHDpL9go">
    <mxGraphModel dx="569" dy="1043" grid="0" gridSize="10" guides="1" tooltips="1" connect="1" arrows="1" fold="1" page="0" pageScale="1" pageWidth="850" pageHeight="1100" math="0" shadow="0">
      <root>
        <mxCell id="0" />
        <mxCell id="1" parent="0" />
        <mxCell id="_Sx2k-VQjvlCMdOwOMj5-2" value="" style="whiteSpace=wrap;html=1;aspect=fixed;" vertex="1" parent="1">
          <mxGeometry x="164" y="-56" width="80" height="80" as="geometry" />
        </mxCell>
        <mxCell id="_Sx2k-VQjvlCMdOwOMj5-3" value="" style="whiteSpace=wrap;html=1;aspect=fixed;" vertex="1" parent="1">
          <mxGeometry x="174.5" y="-45.5" width="59" height="59" as="geometry" />
        </mxCell>
        <mxCell id="_Sx2k-VQjvlCMdOwOMj5-4" value="" style="whiteSpace=wrap;html=1;aspect=fixed;" vertex="1" parent="1">
          <mxGeometry x="284" y="303" width="64" height="64" as="geometry" />
        </mxCell>
        <mxCell id="_Sx2k-VQjvlCMdOwOMj5-5" value="" style="whiteSpace=wrap;html=1;aspect=fixed;" vertex="1" parent="1">
          <mxGeometry x="172" y="108" width="64" height="64" as="geometry" />
        </mxCell>
        <mxCell id="_Sx2k-VQjvlCMdOwOMj5-6" value="" style="whiteSpace=wrap;html=1;aspect=fixed;" vertex="1" parent="1">
          <mxGeometry x="65" y="303" width="64" height="64" as="geometry" />
        </mxCell>
        <mxCell id="_Sx2k-VQjvlCMdOwOMj5-7" value="" style="whiteSpace=wrap;html=1;aspect=fixed;" vertex="1" parent="1">
          <mxGeometry x="172" y="494" width="64" height="64" as="geometry" />
        </mxCell>
        <mxCell id="_Sx2k-VQjvlCMdOwOMj5-8" value="" style="whiteSpace=wrap;html=1;aspect=fixed;" vertex="1" parent="1">
          <mxGeometry x="172" y="699" width="64" height="64" as="geometry" />
        </mxCell>
        <mxCell id="_Sx2k-VQjvlCMdOwOMj5-9" value="" style="whiteSpace=wrap;html=1;aspect=fixed;" vertex="1" parent="1">
          <mxGeometry x="172" y="861" width="64" height="64" as="geometry" />
        </mxCell>
        <mxCell id="_Sx2k-VQjvlCMdOwOMj5-10" value="" style="endArrow=none;html=1;rounded=0;fontSize=12;startSize=8;endSize=8;curved=1;entryX=0.5;entryY=1;entryDx=0;entryDy=0;exitX=0.5;exitY=0;exitDx=0;exitDy=0;" edge="1" parent="1" source="_Sx2k-VQjvlCMdOwOMj5-5" target="_Sx2k-VQjvlCMdOwOMj5-2">
          <mxGeometry width="50" height="50" relative="1" as="geometry">
            <mxPoint x="171" y="237" as="sourcePoint" />
            <mxPoint x="221" y="187" as="targetPoint" />
          </mxGeometry>
        </mxCell>
        <mxCell id="_Sx2k-VQjvlCMdOwOMj5-11" value="" style="endArrow=none;html=1;rounded=0;fontSize=12;startSize=8;endSize=8;curved=1;exitX=0.5;exitY=0;exitDx=0;exitDy=0;" edge="1" parent="1" source="_Sx2k-VQjvlCMdOwOMj5-7">
          <mxGeometry width="50" height="50" relative="1" as="geometry">
            <mxPoint x="214" y="118" as="sourcePoint" />
            <mxPoint x="204" y="446" as="targetPoint" />
          </mxGeometry>
        </mxCell>
        <mxCell id="_Sx2k-VQjvlCMdOwOMj5-12" value="" style="endArrow=none;html=1;rounded=0;fontSize=12;startSize=8;endSize=8;curved=1;" edge="1" parent="1">
          <mxGeometry width="50" height="50" relative="1" as="geometry">
            <mxPoint x="97" y="249" as="sourcePoint" />
            <mxPoint x="317" y="249" as="targetPoint" />
          </mxGeometry>
        </mxCell>
        <mxCell id="_Sx2k-VQjvlCMdOwOMj5-13" value="" style="endArrow=none;html=1;rounded=0;fontSize=12;startSize=8;endSize=8;curved=1;" edge="1" parent="1">
          <mxGeometry width="50" height="50" relative="1" as="geometry">
            <mxPoint x="98" y="445" as="sourcePoint" />
            <mxPoint x="320" y="445" as="targetPoint" />
          </mxGeometry>
        </mxCell>
        <mxCell id="_Sx2k-VQjvlCMdOwOMj5-14" value="" style="endArrow=none;html=1;rounded=0;fontSize=12;startSize=8;endSize=8;curved=1;exitX=0.5;exitY=0;exitDx=0;exitDy=0;" edge="1" parent="1" source="_Sx2k-VQjvlCMdOwOMj5-6">
          <mxGeometry width="50" height="50" relative="1" as="geometry">
            <mxPoint x="110" y="256" as="sourcePoint" />
            <mxPoint x="97" y="246" as="targetPoint" />
          </mxGeometry>
        </mxCell>
        <mxCell id="_Sx2k-VQjvlCMdOwOMj5-15" value="" style="endArrow=none;html=1;rounded=0;fontSize=12;startSize=8;endSize=8;curved=1;exitX=0.5;exitY=0;exitDx=0;exitDy=0;" edge="1" parent="1" source="_Sx2k-VQjvlCMdOwOMj5-4">
          <mxGeometry width="50" height="50" relative="1" as="geometry">
            <mxPoint x="107" y="313" as="sourcePoint" />
            <mxPoint x="316" y="243" as="targetPoint" />
          </mxGeometry>
        </mxCell>
        <mxCell id="_Sx2k-VQjvlCMdOwOMj5-16" value="" style="endArrow=none;html=1;rounded=0;fontSize=12;startSize=8;endSize=8;curved=1;entryX=0.5;entryY=1;entryDx=0;entryDy=0;" edge="1" parent="1" target="_Sx2k-VQjvlCMdOwOMj5-6">
          <mxGeometry width="50" height="50" relative="1" as="geometry">
            <mxPoint x="97" y="444" as="sourcePoint" />
            <mxPoint x="326" y="253" as="targetPoint" />
          </mxGeometry>
        </mxCell>
        <mxCell id="_Sx2k-VQjvlCMdOwOMj5-17" value="" style="endArrow=none;html=1;rounded=0;fontSize=12;startSize=8;endSize=8;curved=1;entryX=0.5;entryY=1;entryDx=0;entryDy=0;" edge="1" parent="1">
          <mxGeometry width="50" height="50" relative="1" as="geometry">
            <mxPoint x="318" y="444" as="sourcePoint" />
            <mxPoint x="318" y="367" as="targetPoint" />
          </mxGeometry>
        </mxCell>
        <mxCell id="_Sx2k-VQjvlCMdOwOMj5-18" value="" style="endArrow=none;html=1;rounded=0;fontSize=12;startSize=8;endSize=8;curved=1;entryX=0.5;entryY=1;entryDx=0;entryDy=0;exitX=0.5;exitY=0;exitDx=0;exitDy=0;" edge="1" parent="1" source="_Sx2k-VQjvlCMdOwOMj5-8" target="_Sx2k-VQjvlCMdOwOMj5-7">
          <mxGeometry width="50" height="50" relative="1" as="geometry">
            <mxPoint x="171" y="624" as="sourcePoint" />
            <mxPoint x="221" y="574" as="targetPoint" />
          </mxGeometry>
        </mxCell>
        <mxCell id="_Sx2k-VQjvlCMdOwOMj5-19" value="" style="endArrow=none;html=1;rounded=0;fontSize=12;startSize=8;endSize=8;curved=1;entryX=0.5;entryY=1;entryDx=0;entryDy=0;exitX=0.5;exitY=0;exitDx=0;exitDy=0;" edge="1" parent="1" source="_Sx2k-VQjvlCMdOwOMj5-9" target="_Sx2k-VQjvlCMdOwOMj5-8">
          <mxGeometry width="50" height="50" relative="1" as="geometry">
            <mxPoint x="214" y="709" as="sourcePoint" />
            <mxPoint x="214" y="568" as="targetPoint" />
          </mxGeometry>
        </mxCell>
        <mxCell id="_Sx2k-VQjvlCMdOwOMj5-23" value="" style="endArrow=none;html=1;rounded=0;fontSize=12;startSize=8;endSize=8;curved=1;exitX=0.5;exitY=1;exitDx=0;exitDy=0;" edge="1" parent="1" source="_Sx2k-VQjvlCMdOwOMj5-5">
          <mxGeometry width="50" height="50" relative="1" as="geometry">
            <mxPoint x="171" y="62" as="sourcePoint" />
            <mxPoint x="204" y="253" as="targetPoint" />
          </mxGeometry>
        </mxCell>
      </root>
    </mxGraphModel>
  </diagram>
</mxfile>
